<svg width="44" height="44" viewBox="0 0 44 44" fill="none" xmlns="http://www.w3.org/2000/svg">
<path d="M25.0547 2.62001L37.4297 9.91668L37.6057 10.0322L37.7762 10.1752L37.9705 10.3108C38.6581 10.8259 39.2249 11.4849 39.6315 12.2417C40.0381 12.9984 40.2746 13.8349 40.3245 14.6925L40.3337 15.0665V28.4205C40.3337 30.5747 39.1548 32.5565 37.3582 33.541L24.8842 41.428C23.0875 42.4143 20.9132 42.4143 19.0175 41.3693L6.74333 33.6015C5.81383 33.0923 5.03804 32.3429 4.49692 31.4315C3.95581 30.5202 3.66919 29.4804 3.66699 28.4205V15.0647C3.66699 13.037 4.71199 11.1633 6.37299 10.1055L19.1147 2.59251C20.948 1.58051 23.1737 1.58051 25.0547 2.62001ZM25.667 12.8335H22.0003C20.5416 12.8335 19.1427 13.413 18.1112 14.4444C17.0798 15.4759 16.5003 16.8748 16.5003 18.3335V25.6668C16.5003 27.1255 17.0798 28.5245 18.1112 29.5559C19.1427 30.5874 20.5416 31.1668 22.0003 31.1668H25.667C26.1532 31.1668 26.6195 30.9737 26.9634 30.6299C27.3072 30.2861 27.5003 29.8197 27.5003 29.3335V22.0002C27.5003 21.5139 27.3072 21.0476 26.9634 20.7038C26.6195 20.36 26.1532 20.1668 25.667 20.1668H23.8337C23.3474 20.1668 22.8811 20.36 22.5373 20.7038C22.1935 21.0476 22.0003 21.5139 22.0003 22.0002L22.0132 22.2147C22.0657 22.6606 22.2801 23.0718 22.6156 23.3702C22.9512 23.6686 23.3846 23.8335 23.8337 23.8335V27.5002H22.0003C21.5141 27.5002 21.0478 27.307 20.704 26.9632C20.3601 26.6194 20.167 26.1531 20.167 25.6668V18.3335C20.167 17.8473 20.3601 17.381 20.704 17.0372C21.0478 16.6933 21.5141 16.5002 22.0003 16.5002H25.667C26.1532 16.5002 26.6195 16.307 26.9634 15.9632C27.3072 15.6194 27.5003 15.1531 27.5003 14.6668C27.5003 14.1806 27.3072 13.7143 26.9634 13.3705C26.6195 13.0267 26.1532 12.8335 25.667 12.8335Z" fill="url(#paint0_linear_4774_133)"/>
<defs>
<linearGradient id="paint0_linear_4774_133" x1="5.49963" y1="42.1606" x2="70.7146" y2="-2.61885" gradientUnits="userSpaceOnUse">
<stop stop-color="#4C6DD0"/>
<stop offset="1" stop-color="#04BEFE"/>
</linearGradient>
</defs>
</svg>
